<?xml version="1.0" encoding="UTF-8"?>
<svg version="1.1" viewBox="0 0 1024 1024" width="1280" height="1280" xmlns="http://www.w3.org/2000/svg">
<path transform="translate(0)" d="m0 0h1024v1024h-1024z" fill="#030101"/>
<path transform="translate(0,906)" d="m0 0h1024v118h-1024z" fill="#FDFDFD"/>
<path transform="translate(0)" d="m0 0h1024v118h-1024z" fill="#FDFDFD"/>
<path transform="translate(833,252)" d="m0 0 2 1-15 14-12 12-8 7-18 18-8 7-15 15-8 7-16 16-8 7-16 16-8 7-15 15-8 7-15 15-8 7-15 15-8 7-17 17-8 7-16 16-8 7-16 16-8 7-17 17-8 7-15 15-8 7-15 15-8 7-15 15-8 7-16 16-8 7-16 16-8 7-16 16-8 7-9 8-17 13-14 10-18 11-19 10-18 7-21 5-7 1h-18l-15-3-12-5-11-7-10-9-8-10-7-14-4-13-3-17-1-9v-29l5-34 7-32 9-30 7-20 11-27 5-11h1l-1 18v42l3 20 6 18 8 14 7 8 13 9 10 4 9 2h24l18-4 20-8 19-10 17-12 20-14 34-24 20-14 34-24 20-14 17-12 20-14 34-24 40-28 34-24 20-14 17-12 20-14 34-24 20-14 17-12 20-14 17-12z" fill="#FDFDFD"/>
<path transform="translate(173,836)" d="m0 0 7 1 4 3 6-1 3-1 8 1 3 4 4 8 2 7 3 5 5 3-1 3 2 1 1 2h3l11 2 7 8 4 2v2l3-1v2l11 3 8 7 8-1 4 3 1 6-1 1h-225l1-6 1-2 1-10 1-5v-8l1-1h5l4 9h3l2-5 17-8 5-2 11-3 2-2 10-2 14 2 10-4 4-2 7-1 9-3 5-11 5-5z" fill="#271D2B"/>
<path transform="translate(976,837)" d="m0 0 4 1 13 1 8 3 5-1 15 5 3 3v57h-136l-1-1v-5h2l3-10v-4l2-12 5-1 1 1h7l4-3h2l2-6 7-3 4-6 9-3 10-3 6-3 3-5 7 1 6-4z" fill="#42271C"/>
<path transform="translate(755,873)" d="m0 0h14l2 2 8 1 6 4v2l5 1 2 1v2h5l5 3 7 3 3 3 6-1v-2l2-1h6l8 4 10 8 1 3h-304l2-5h3v-2l10-3 1-2 7-1 4-1 3 3 5-1 10-3 9-2 2-2 8 2 9-6h5l1 2-1 2h4l1-4 8-3 7 1 7 5 13 2 11 3 7 1v5l6-2 3-3 8 1 1 5-4 4 10 2 2-2 7 1 7-4 3-6 2-2 6-1 3 1v-4l4-1 3-3h3v-2l5-3 6-4z" fill="#191A14"/>
<path transform="translate(173,836)" d="m0 0 7 1 4 3 6-1 3-1 8 1 3 4 4 8 2 7 3 5 5 3-1 3 2 1 1 2h3l11 2 7 8 4 2v2l3-1v2l11 3 8 7 8-1 4 3 1 6-1 1h-42l-2-9-1-4-9-3-9-4-4-4-1-3v-9l-6-2-5-5v-3h-2v-2h-2v-2l-7 1h-8l-6 3h-7l-2 2-18 1-8 3-5 4-10 7-8 3-7 1-9 3-13 1-8 5-6 2h-6l-4-4h-3l-2 4 3 4v2h2l1 8h-11l1-6 1-2 1-10 1-5v-8l1-1h5l4 9h3l2-5 17-8 5-2 11-3 2-2 10-2 14 2 10-4 4-2 7-1 9-3 5-11 5-5z" fill="#1C171C"/>
<path transform="translate(984,824)" d="m0 0h7l5 2 8-1h15l5 1v23l-3-1-1-2-10-2-5-2-5 1-7-3-13-1-4-1-9 2-7 4-6-2-2 5-9 5-16 4-5 7-6 2-3 6-6 4h-7l-4-1h-2l-1 12-1 2 2 1-5 11h-2l1 6h-10l-2-7-1-1-2-10-3-2 1-5 7-3 2-7 3-3 5-2 6 1 1-5 2-4 3-3 6-3 6-5 9 1 4-11 2-1 15-1 7-3 1-1v-6h19l6 3 5-1z" fill="#1D1310"/>
<path transform="translate(367,872)" d="m0 0h9l3 1v2h11l5 3 3 3 10 2 8 5v3l5 1 7 7 8 4 8-1 4 1 6-1 7 3v1h-158l-1-3 9-3 2 2 3-2h4v-2l8-3 8-4 2-5 13-6 4-4 10-3z" fill="#191B15"/>
<path transform="translate(755,873)" d="m0 0h14l2 2 8 1 6 4v2l5 1 2 1v2h5l5 3 7 3 3 3 6-1v-2l2-1h6l8 4 10 8 1 3h-123l1-3 5-5 3-4h6l2 2 1 4 4-1 3-5 2-4h-2l-2 5-5 1-1-2-5-2-7 1 1-3 3 1v-4l4-1 3-3h3v-2l5-3 6-4z" fill="#1C1310"/>
<path transform="translate(3,871)" d="m0 0h2v3l4-1v3l3 1 2 6 4 2 1 7-1 7v3h10l7 2 4 1v1h-39v-34z" fill="#1D171C"/>
<path transform="translate(331,893)" d="m0 0h6l-1 4 3 1-3 8h-33l-1-3 9-3 2 2 3-2h4v-2l8-3z" fill="#1D181D"/>
<path transform="translate(766,880)" d="m0 0h7l5 5 11 6-1 3h-3v-2l-5-1v1l-12 3-7-1-1-2 3-7h-2l-1 3h-8l4-2 9-5z" fill="#191B15"/>
<path transform="translate(565,892)" d="m0 0h3l1 7-4 2-2 5h-22l2-5h3v-2l10-3 1-2 7-1z" fill="#1C181C"/>
<path transform="translate(817,898)" d="m0 0 7 1v2l6-2 3 4 6 2v1h-14l-10-1-1-4z" fill="#40261B"/>
<path transform="translate(57,891)" d="m0 0 5 5v2h2l1 8h-11l1-6z" fill="#1D181D"/>
<path transform="translate(789,894)" d="m0 0 2 1h9l4 2v3l8-1v4l-4 2-4-1-4-3 1-2h-7-3l-1-3-2-1z" fill="#1A1B15"/>
<path transform="translate(512,891)" d="m0 0 4 4 2 5-4 2-7-4 1-4h2v-2z" fill="#1D181D"/>
<path transform="translate(912,852)" d="m0 0 6 1 2 3-2 4h-2v2h-2l-4-7z" fill="#42271C"/>
<path transform="translate(871,901)" d="m0 0h2v5h-14v-3z" fill="#1C1310"/>
<path transform="translate(736,885)" d="m0 0 2 3v5l-4-1-7 1 1-3 3 1v-4l4-1z" fill="#1C120F"/>
<path transform="translate(681,881)" d="m0 0 4 1-1 5-5 3-1-6z" fill="#191B15"/>
<path transform="translate(575,874)" d="m0 0h5l1 4-3 3-3 1-2-5z" fill="#1D171B"/>
<path transform="translate(818,895)" d="m0 0h7l4 5v1h-5v-2h-5z" fill="#281913"/>
<path transform="translate(776,898)" d="m0 0 4 1-6 7h-2v-3l-2-1 3-3z" fill="#42271C"/>
<path transform="translate(527,902)" d="m0 0h7l1 4h-10z" fill="#1D181D"/>
<path transform="translate(562,878)" d="m0 0 4 1 2 2v3l-4 1-3-4z" fill="#191B15"/>
<path transform="translate(755,900)" d="m0 0 5 1v4l-6-1v-3z" fill="#42271C"/>
<path transform="translate(766,883)" d="m0 0 7 1v4l-10-3z" fill="#1D1310"/>
</svg>
